<svg width="28" height="35" xmlns="http://www.w3.org/2000/svg">
 <!-- Created with SVG Editor - http://github.com/mzalive/SVG Editor/ -->

 <g>
  <title>background</title>
  <rect fill="none" id="canvas_background" height="37" width="30" y="-1" x="-1"/>
  <g display="none" overflow="visible" y="0" x="0" height="100%" width="100%" id="canvasGrid">
   <rect fill="url(#gridpattern)" stroke-width="0" y="0" x="0" height="100%" width="100%"/>
  </g>
 </g>
 <g>
  <title>Layer 1</title>
  <g id="svg_9">
   <g id="svg_4" fill="#000000" transform="matrix(0.006781683611431316,0,0,-0.006781683611431316,0,34.72221957312698) ">
    <path fill="#008080" id="svg_5" d="m1636.000488,5103.373047c-83,-22 -165,-71 -224,-133c-99,-104 -137,-210 -137,-383l0,-107l-487,-3l-488,-3l-67,-32c-93,-44 -151,-100 -196,-191l-37,-76l0,-357c0,-345 1,-358 21,-385c40,-54 70,-68 150,-72l74,-4l0,-37c1,-147 142,-2926 150,-2961c40,-165 196,-313 368,-349c75,-15 2549,-15 2624,0c172,36 328,184 368,349c8,35 149,2814 150,2961l0,37l74,4c80,4 110,18 150,72c20,27 21,40 21,385l0,357l-37,76c-45,91 -103,147 -196,191l-67,32l-487,3l-488,3l0,107c0,173 -38,279 -137,383c-61,64 -141,111 -228,134c-84,21 -793,21 -874,-1zm845,-330c60,-44 69,-67 72,-185l4,-109l-481,0l-481,0l0,94c0,102 9,137 43,175c46,50 56,51 449,48c353,-2 368,-3 394,-23zm1329,-639c25,-24 25,-24 25,-240l0,-215l-1760,0l-1760,0l0,215c0,216 0,216 25,240l24,25l1711,0l1711,0l24,-25zm-225,-792c1,-83 -132,-2823 -139,-2870c-11,-73 -32,-106 -87,-133c-40,-20 -57,-20 -1284,-20c-1227,0 -1244,0 -1284,20c-55,27 -76,60 -87,133c-7,47 -140,2787 -139,2870c0,16 79,17 1510,17c1431,0 1510,-1 1510,-17z"/>
    <path fill="#008080" id="svg_6" d="m1210.000488,3025.373047c-41,-18 -83,-69 -90,-109c-3,-18 -4,-514 -3,-1104c3,-1064 3,-1072 24,-1099c39,-53 71,-69 134,-69c63,0 95,16 134,69c21,27 21,32 21,1126c0,1094 0,1099 -21,1126c-11,15 -32,37 -46,47c-33,25 -113,32 -153,13z"/>
    <path fill="#008080" id="svg_7" d="m2010.000488,3025.373047c-41,-18 -83,-69 -90,-109c-3,-18 -4,-514 -3,-1104c3,-1064 3,-1072 24,-1099c39,-53 71,-69 134,-69c63,0 95,16 134,69c21,27 21,32 21,1126c0,1094 0,1099 -21,1126c-11,15 -32,37 -46,47c-33,25 -113,32 -153,13z"/>
    <path fill="#008080" id="svg_8" d="m2810.000488,3025.373047c-41,-18 -83,-69 -90,-109c-3,-18 -4,-514 -3,-1104c3,-1064 3,-1072 24,-1099c39,-53 71,-69 134,-69c63,0 95,16 134,69c21,27 21,32 21,1126c0,1094 0,1099 -21,1126c-11,15 -32,37 -46,47c-33,25 -113,32 -153,13z"/>
   </g>
  </g>
 </g>
</svg>