<svg width="35" height="31" xmlns="http://www.w3.org/2000/svg">
 <!-- Created with SVG Editor - http://github.com/mzalive/SVG Editor/ -->

 <g>
  <title>background</title>
  <rect fill="none" id="canvas_background" height="33" width="37" y="-1" x="-1"/>
  <g display="none" overflow="visible" y="0" x="0" height="100%" width="100%" id="canvasGrid">
   <rect fill="url(#gridpattern)" stroke-width="0" y="0" x="0" height="100%" width="100%"/>
  </g>
 </g>
 <g>
  <title>Layer 1</title>
  <g id="svg_6">
   <g id="svg_4" fill="#000000" transform="matrix(0.006781683611431316,0,0,-0.006781683611431316,0,34.72221957312698) ">
    <path fill="#008080" id="svg_5" d="m1173.660156,5107.423828c-208,-31 -377,-96 -560,-215c-102,-66 -280,-247 -355,-361c-267,-408 -332,-927 -173,-1400c95,-283 278,-563 584,-896c226,-246 438,-439 1286,-1166c561,-483 556,-479 637,-464c19,4 49,19 68,34c69,55 1039,891 1208,1041c584,517 880,857 1064,1220c147,290 205,583 178,889c-36,390 -173,696 -426,947c-177,176 -371,287 -601,344c-369,91 -738,24 -1038,-190c-161,-114 -339,-312 -443,-491c-21,-37 -41,-68 -44,-68c-3,0 -23,31 -44,68c-104,179 -282,377 -443,491c-90,64 -228,136 -318,166c-168,56 -405,77 -580,51z"/>
   </g>
  </g>
 </g>
</svg>