<svg width="35" height="31" xmlns="http://www.w3.org/2000/svg">
 <!-- Created with SVG Editor - http://github.com/mzalive/SVG Editor/ -->

 <g>
  <title>background</title>
  <rect fill="none" id="canvas_background" height="33" width="37" y="-1" x="-1"/>
  <g display="none" overflow="visible" y="0" x="0" height="100%" width="100%" id="canvasGrid">
   <rect fill="url(#gridpattern)" stroke-width="0" y="0" x="0" height="100%" width="100%"/>
  </g>
 </g>
 <g>
  <title>Layer 1</title>
  <g id="svg_6">
   <g id="svg_4" fill="#000000" transform="matrix(0.006781683611431316,0,0,-0.006781683611431316,0,34.72221957312698) ">
    <path fill="#008080" id="svg_5" d="m1131.78125,5100.585938c-539,-94 -954,-505 -1088,-1075c-112,-478 -9,-946 308,-1400c127,-181 228,-297 471,-541c265,-265 409,-393 1159,-1037c394,-338 516,-438 542,-443c80,-15 77,-16 612,443c279,239 600,517 713,616c246,216 655,623 767,762c226,282 366,531 438,780c163,565 2,1191 -404,1567c-388,359 -966,450 -1430,225c-223,-108 -442,-316 -592,-562c-35,-57 -66,-104 -69,-104c-3,0 -34,47 -69,104c-189,310 -462,536 -761,630c-179,56 -404,69 -597,35zm462,-309c342,-91 624,-384 800,-831c20,-52 44,-103 53,-114c41,-45 125,-60 180,-32c43,22 58,45 97,146c147,373 358,631 628,764c145,72 224,89 407,90c130,1 170,-3 245,-22c174,-44 390,-170 496,-290c234,-264 349,-628 310,-984c-54,-493 -357,-920 -1156,-1627c-303,-268 -1084,-936 -1095,-936c-11,0 -792,668 -1095,936c-799,707 -1102,1134 -1156,1627c-46,423 128,863 433,1092c129,97 258,157 413,190c120,26 323,22 440,-9z"/>
   </g>
  </g>
 </g>
</svg>